<mxfile host="app.diagrams.net" modified="2023-12-19T12:40:38.741Z" agent="Mozilla/5.0 (Windows NT 10.0; Win64; x64) AppleWebKit/537.36 (KHTML, like Gecko) Chrome/120.0.0.0 Safari/537.36" version="22.1.11" etag="12wecJCAaYGKx7xHU5Ei" type="github">
  <diagram name="Page-1" id="LiudzwvIc4U06t_y8HNB">
    <mxGraphModel>
      <root>
        <mxCell id="0" />
        <mxCell id="1" parent="0" />
      </root>
    </mxGraphModel>
  </diagram>
</mxfile>
